<?xml version="1.0" encoding="utf-8"?>
<!-- Generator: Adobe Illustrator 17.0.0, SVG Export Plug-In . SVG Version: 6.00 Build 0)  -->
<!DOCTYPE svg PUBLIC "-//W3C//DTD SVG 1.1//EN" "http://www.w3.org/Graphics/SVG/1.1/DTD/svg11.dtd">
<svg version="1.1" id="Layer_1" xmlns="http://www.w3.org/2000/svg" xmlns:xlink="http://www.w3.org/1999/xlink" x="0px" y="0px"
	 width="280px" height="130px" viewBox="0 0 280 130" enable-background="new 0 0 280 130" xml:space="preserve">
<g>
	<path fill="#FFFFFF" d="M22.161,28.596C16.437,22.573,9.287,15.783,0.411,8.13v77.783c8.938-1.189,16.075-2.702,21.75-4.411V28.596
		z"/>
	<path fill="#FFFFFF" d="M127.911,120.624V55.662c-6.505-3.024-13.727-6.217-21.75-9.585v61.569h-84V93.913
		c-6.279,1.687-13.514,3.047-21.75,4.092v30.098C54.286,127.535,97.026,125.028,127.911,120.624z"/>
	<path fill="#FFFFFF" d="M79.569,23.647h26.592v10.502c6.912,2.853,13.432,5.651,19.54,8.391c0.75,0.336,1.473,0.668,2.21,1.003
		V1.897H18.047C40.608,9.398,61.155,16.662,79.569,23.647z"/>
</g>
<path fill="#FFFFFF" d="M64.161,74.064c24.25-10.667,30.75-32.667,30.75-32.667s-22-9.75-45-18.677
	C63.51,36.156,71.901,56.735,64.161,74.064z"/>
<g>
	<path fill="#FFFFFF" d="M153.29,21.967c0,0.63-0.21,0.9-0.84,0.9h-3.09c-0.63,0-0.87-0.27-0.87-0.9v-9.51
		c-0.03,0.09-0.6,2.19-0.96,3.15l-1.32,3.27c-0.24,0.6-0.57,0.9-1.17,0.9h-2.61c-0.6,0-0.9-0.36-1.14-0.9l-1.65-3.81
		c-0.33-0.78-0.72-2.28-0.78-2.52v9.419c0,0.63-0.21,0.9-0.84,0.9h-2.94c-0.63,0-0.87-0.27-0.87-0.9V3.367c0-0.63,0.24-0.9,0.87-0.9
		h2.94c0.45,0,0.63,0.18,0.78,0.48l4.08,9.179c0.42,1.02,0.81,2.25,0.87,2.37c0-0.06,0.3-0.99,0.87-2.31l3.93-9.299
		c0.12-0.3,0.36-0.42,0.81-0.42h3.09c0.63,0,0.84,0.27,0.84,0.9V21.967z"/>
	<path fill="#FFFFFF" d="M161.841,21.967c0,0.63-0.211,0.9-0.84,0.9h-3.24c-0.63,0-0.87-0.27-0.87-0.9V3.367
		c0-0.63,0.24-0.9,0.87-0.9h3.24c0.629,0,0.84,0.27,0.84,0.9V21.967z"/>
	<path fill="#FFFFFF" d="M180.771,21.967c0,0.63-0.211,0.9-0.84,0.9h-2.94c-0.45,0-0.63-0.12-0.81-0.42l-4.801-7.979
		c-0.51-0.81-0.959-1.86-1.289-2.7v10.2c0,0.63-0.211,0.9-0.84,0.9h-2.94c-0.63,0-0.87-0.27-0.87-0.9V3.367
		c0-0.63,0.24-0.9,0.87-0.9h2.94c0.39,0,0.629,0.12,0.75,0.36l5.069,8.49c0.36,0.63,0.75,1.53,1.05,2.25V3.367
		c0-0.63,0.24-0.9,0.87-0.9h2.94c0.629,0,0.84,0.27,0.84,0.9V21.967z"/>
	<path fill="#FFFFFF" d="M185.12,22.866c-0.54,0-0.75-0.3-0.75-0.9V3.367c0-0.63,0.24-0.9,0.87-0.9h6.78
		c5.639,0,7.68,2.55,7.68,5.13v10.14c0,2.58-2.041,5.13-7.68,5.13H185.12z M189.319,6.517v12.299h2.701
		c1.469,0,2.729-0.57,2.729-1.95V8.467c0-1.38-1.261-1.95-2.729-1.95H189.319z"/>
	<path fill="#FFFFFF" d="M214.849,14.587l2.94,7.38c0.21,0.54-0.181,0.9-0.84,0.9h-3.24c-0.569,0-0.69-0.48-0.87-0.9l-2.64-6.63
		h-2.25v6.63c0,0.63-0.21,0.9-0.84,0.9h-3.239c-0.631,0-0.871-0.27-0.871-0.9V3.367c0-0.63,0.24-0.9,0.871-0.9h6.479
		c5.641,0,7.621,2.55,7.621,5.13v2.61C217.97,11.917,217.099,13.627,214.849,14.587z M207.949,6.517v4.77h2.399
		c1.471,0,2.73-0.57,2.73-1.95v-0.87c0-1.38-1.26-1.95-2.73-1.95H207.949z"/>
	<path fill="#FFFFFF" d="M221.989,22.866c-0.63,0-0.87-0.27-0.87-0.9V3.367c0-0.63,0.24-0.9,0.87-0.9h10.26
		c0.63,0,0.9,0.21,0.9,0.84v2.34c0,0.63-0.271,0.87-0.9,0.87h-6.18v3.899h5.699c0.631,0,0.9,0.21,0.9,0.84v2.19
		c0,0.63-0.27,0.87-0.9,0.87h-5.699v4.5h6.479c0.63,0,0.899,0.21,0.899,0.84v2.34c0,0.63-0.27,0.87-0.899,0.87H221.989z"/>
	<path fill="#FFFFFF" d="M245.719,3.367l5.43,18.599c0.18,0.57-0.03,0.9-0.66,0.9h-3.329c-0.631,0-0.9-0.33-1.051-0.9l-0.779-2.88
		h-4.98l-0.779,2.88c-0.15,0.57-0.42,0.9-1.051,0.9h-3.029c-0.631,0-0.84-0.33-0.66-0.9l5.43-18.599c0.18-0.6,0.48-0.9,1.109-0.9
		h3.24C245.239,2.467,245.538,2.767,245.719,3.367z M243.829,13.567c-0.48-1.83-0.9-6-0.931-6.27c-0.06,0.42-0.54,4.53-1.02,6.27
		l-0.45,1.62h2.82L243.829,13.567z"/>
	<path fill="#FFFFFF" d="M257.778,17.107c0,1.38,1.23,1.95,2.701,1.95c1.469,0,2.729-0.57,2.729-1.95V3.367
		c0-0.63,0.24-0.9,0.871-0.9h3.239c0.63,0,0.841,0.27,0.841,0.9v14.609c0,2.58-2.041,5.13-7.68,5.13c-5.641,0-7.65-2.55-7.65-5.13
		V3.367c0-0.63,0.24-0.9,0.87-0.9h3.239c0.631,0,0.84,0.27,0.84,0.9V17.107z"/>
	<path fill="#FFFFFF" d="M141.411,26.467c0.39,0,0.6,0.18,0.72,0.57l5.82,19.259c0.12,0.36-0.03,0.57-0.45,0.57h-1.89
		c-0.39,0-0.57-0.21-0.66-0.57l-1.41-4.65h-6.33l-1.38,4.65c-0.09,0.36-0.27,0.57-0.66,0.57h-1.74c-0.39,0-0.54-0.21-0.42-0.57
		l5.82-19.259c0.12-0.39,0.33-0.57,0.72-0.57H141.411z M141.231,33.847c-0.36-1.11-0.78-4.05-0.81-4.38
		c-0.06,0.27-0.45,3.03-0.84,4.32l-1.71,5.52h5.04L141.231,33.847z"/>
	<path fill="#FFFFFF" d="M151.551,46.866c-0.39,0-0.54-0.18-0.54-0.6V27.067c0-0.42,0.15-0.6,0.54-0.6h10.259
		c0.391,0,0.57,0.15,0.57,0.57v1.35c0,0.42-0.18,0.57-0.57,0.57h-7.889v6.06h7.35c0.42,0,0.6,0.15,0.6,0.57v1.29
		c0,0.39-0.18,0.57-0.6,0.57h-7.35v6.93h8.219c0.391,0,0.57,0.12,0.57,0.54v1.38c0,0.42-0.18,0.57-0.57,0.57H151.551z"/>
	<path fill="#FFFFFF" d="M169.49,38.797v7.47c0,0.42-0.12,0.6-0.54,0.6h-1.83c-0.39,0-0.539-0.18-0.539-0.6V27.067
		c0-0.42,0.149-0.6,0.539-0.6h6.09c5.16,0,6.811,2.16,6.811,4.62v3.12c0,1.83-0.931,3.48-3.51,4.2l3.6,7.859
		c0.149,0.36-0.121,0.6-0.541,0.6h-1.799c-0.42,0-0.48-0.24-0.66-0.6l-3.391-7.47h-0.51H169.49z M169.49,28.957v7.35h3.72
		c2.7,0,3.9-0.96,3.9-2.61v-2.13c0-1.62-1.2-2.61-3.9-2.61H169.49z"/>
	<path fill="#FFFFFF" d="M184.07,30.847c0-2.46,1.681-4.62,6.81-4.62c5.16,0,6.84,2.16,6.84,4.62v11.64c0,2.46-1.68,4.62-6.84,4.62
		c-5.129,0-6.81-2.16-6.81-4.62V30.847z M194.78,31.327c0-1.62-1.2-2.61-3.9-2.61c-2.67,0-3.869,0.99-3.869,2.61v10.68
		c0,1.62,1.199,2.61,3.869,2.61c2.7,0,3.9-0.99,3.9-2.61V31.327z"/>
	<path fill="#FFFFFF" d="M212.149,31.237c0-1.62-0.99-2.55-3.63-2.55s-3.63,0.93-3.63,2.55v0.6c0,1.38,0.9,1.77,1.53,2.01l5.46,2.07
		c1.8,0.69,3.3,1.86,3.3,4.08v2.49c0,2.46-1.71,4.62-6.72,4.62s-6.75-2.16-6.75-4.62v-1.74c0-0.42,0.18-0.6,0.57-0.6h1.77
		c0.391,0,0.54,0.18,0.54,0.6v1.35c0,1.62,1.14,2.55,3.84,2.55s3.87-0.93,3.87-2.55v-1.41c0-1.5-1.35-2.01-2.52-2.46l-5.07-1.95
		c-1.32-0.51-2.67-1.86-2.67-3.72v-1.71c0-2.46,1.561-4.62,6.449-4.62c4.891,0,6.51,2.16,6.51,4.62v1.32
		c0,0.39-0.149,0.57-0.539,0.57h-1.771c-0.42,0-0.54-0.18-0.54-0.57V31.237z"/>
	<path fill="#FFFFFF" d="M222.259,39.277v6.99c0,0.42-0.119,0.6-0.539,0.6h-1.83c-0.391,0-0.54-0.18-0.54-0.6V27.067
		c0-0.42,0.149-0.6,0.54-0.6h6.09c5.16,0,6.81,2.16,6.81,4.62v3.57c0,2.46-1.649,4.62-6.81,4.62H222.259z M222.259,28.957v7.83
		h3.721c2.699,0,3.899-0.99,3.899-2.61v-2.61c0-1.62-1.2-2.61-3.899-2.61H222.259z"/>
	<path fill="#FFFFFF" d="M241.819,26.467c0.391,0,0.6,0.18,0.721,0.57l5.819,19.259c0.12,0.36-0.03,0.57-0.45,0.57h-1.89
		c-0.39,0-0.57-0.21-0.66-0.57l-1.41-4.65h-6.329l-1.381,4.65c-0.09,0.36-0.27,0.57-0.66,0.57h-1.739c-0.39,0-0.54-0.21-0.42-0.57
		l5.819-19.259c0.12-0.39,0.33-0.57,0.721-0.57H241.819z M241.64,33.847c-0.36-1.11-0.78-4.05-0.811-4.38
		c-0.06,0.27-0.449,3.03-0.84,4.32l-1.709,5.52h5.039L241.64,33.847z"/>
	<path fill="#FFFFFF" d="M264.049,42.487c0,2.46-1.47,4.62-6.63,4.62c-5.159,0-6.629-2.16-6.629-4.62v-11.64
		c0-2.46,1.47-4.62,6.629-4.62c5.16,0,6.63,2.16,6.63,4.62v1.47c0,0.42-0.149,0.6-0.54,0.6h-1.74c-0.42,0-0.569-0.18-0.569-0.6
		v-0.99c0-1.62-1.05-2.61-3.75-2.61s-3.72,0.99-3.72,2.61v10.68c0,1.62,1.02,2.61,3.72,2.61s3.75-0.99,3.75-2.61v-1.41
		c0-0.39,0.149-0.57,0.569-0.57h1.74c0.391,0,0.54,0.18,0.54,0.57V42.487z"/>
	<path fill="#FFFFFF" d="M268.429,46.866c-0.39,0-0.539-0.18-0.539-0.6V27.067c0-0.42,0.149-0.6,0.539-0.6h10.26
		c0.391,0,0.57,0.15,0.57,0.57v1.35c0,0.42-0.18,0.57-0.57,0.57h-7.89v6.06h7.35c0.421,0,0.601,0.15,0.601,0.57v1.29
		c0,0.39-0.18,0.57-0.601,0.57h-7.35v6.93h8.22c0.391,0,0.57,0.12,0.57,0.54v1.38c0,0.42-0.18,0.57-0.57,0.57H268.429z"/>
</g>
</svg>
