<?xml version="1.0" encoding="utf-8"?>
<!-- Generator: Adobe Illustrator 17.0.0, SVG Export Plug-In . SVG Version: 6.00 Build 0)  -->
<!DOCTYPE svg PUBLIC "-//W3C//DTD SVG 1.1//EN" "http://www.w3.org/Graphics/SVG/1.1/DTD/svg11.dtd">
<svg version="1.1" id="Layer_1" xmlns="http://www.w3.org/2000/svg" xmlns:xlink="http://www.w3.org/1999/xlink" x="0px" y="0px"
	 width="500px" height="500px" viewBox="0 0 500 500" enable-background="new 0 0 500 500" xml:space="preserve">
<g>
	<line fill="none" stroke="#FFFFFF" stroke-width="5" stroke-miterlimit="10" x1="495" y1="215.562" x2="440.388" y2="223.209"/>
</g>
<g>
	<line fill="none" stroke="#FFFFFF" stroke-width="5" stroke-miterlimit="10" x1="406.135" y1="59.068" x2="371.429" y2="101.77"/>
</g>
<g>
	<line fill="none" stroke="#FFFFFF" stroke-width="5" stroke-miterlimit="10" x1="234.024" y1="5" x2="237.871" y2="59.813"/>
</g>
<g>
	<line fill="none" stroke="#FFFFFF" stroke-width="5" stroke-miterlimit="10" x1="71.14" y1="82.408" x2="111.473" y2="119.882"/>
</g>
<g>
	<line fill="none" stroke="#FFFFFF" stroke-width="5" stroke-miterlimit="10" x1="495" y1="284.438" x2="440.388" y2="276.791"/>
</g>
<g>
	<line fill="none" stroke="#FFFFFF" stroke-width="5" stroke-miterlimit="10" x1="406.135" y1="440.932" x2="371.429" y2="398.23"/>
</g>
<g>
	<line fill="none" stroke="#FFFFFF" stroke-width="5" stroke-miterlimit="10" x1="234.024" y1="495" x2="237.871" y2="440.187"/>
</g>
<g>
	<line fill="none" stroke="#FFFFFF" stroke-width="5" stroke-miterlimit="10" x1="71.14" y1="417.592" x2="111.473" y2="380.118"/>
</g>
<g>
	<line fill="none" stroke="#FFFFFF" stroke-width="5" stroke-miterlimit="10" x1="5" y1="249.701" x2="60.148" y2="249.701"/>
</g>
<g>
	<g>
		<g>
			
				<line fill="none" stroke="#FFFFFF" stroke-width="5" stroke-miterlimit="10" x1="197.306" y1="10.435" x2="204.866" y2="44.761"/>
		</g>
	</g>
	<g>
		<g>
			<line fill="none" stroke="#FFFFFF" stroke-width="5" stroke-miterlimit="10" x1="162.04" y1="21.035" x2="174.659" y2="53.84"/>
		</g>
	</g>
	<g>
		<g>
			
				<line fill="none" stroke="#FFFFFF" stroke-width="5" stroke-miterlimit="10" x1="128.761" y1="36.802" x2="146.154" y2="67.345"/>
		</g>
	</g>
	<g>
		<g>
			<line fill="none" stroke="#FFFFFF" stroke-width="5" stroke-miterlimit="10" x1="98.221" y1="57.378" x2="119.996" y2="84.969"/>
		</g>
	</g>
	<g>
		<g>
			<line fill="none" stroke="#FFFFFF" stroke-width="5" stroke-miterlimit="10" x1="48.041" y1="111.002" x2="77.014" y2="130.9"/>
		</g>
	</g>
	<g>
		<g>
			
				<line fill="none" stroke="#FFFFFF" stroke-width="5" stroke-miterlimit="10" x1="29.534" y1="142.839" x2="61.162" y2="158.169"/>
		</g>
	</g>
	<g>
		<g>
			
				<line fill="none" stroke="#FFFFFF" stroke-width="5" stroke-miterlimit="10" x1="16.007" y1="177.089" x2="49.577" y2="187.506"/>
		</g>
	</g>
	<g>
		<g>
			<line fill="none" stroke="#FFFFFF" stroke-width="5" stroke-miterlimit="10" x1="7.767" y1="212.981" x2="42.519" y2="218.249"/>
		</g>
	</g>
</g>
<g>
	<line fill="none" stroke="#FFFFFF" stroke-width="5" stroke-miterlimit="10" x1="234.024" y1="494" x2="237.871" y2="439.187"/>
</g>
<g>
	<line fill="none" stroke="#FFFFFF" stroke-width="5" stroke-miterlimit="10" x1="71.14" y1="416.592" x2="111.473" y2="379.118"/>
</g>
<g>
	<g>
		<g>
			
				<line fill="none" stroke="#FFFFFF" stroke-width="5" stroke-miterlimit="10" x1="197.306" y1="488.565" x2="204.866" y2="454.239"/>
		</g>
	</g>
	<g>
		<g>
			
				<line fill="none" stroke="#FFFFFF" stroke-width="5" stroke-miterlimit="10" x1="162.04" y1="477.965" x2="174.659" y2="445.16"/>
		</g>
	</g>
	<g>
		<g>
			
				<line fill="none" stroke="#FFFFFF" stroke-width="5" stroke-miterlimit="10" x1="128.761" y1="462.198" x2="146.154" y2="431.655"/>
		</g>
	</g>
	<g>
		<g>
			
				<line fill="none" stroke="#FFFFFF" stroke-width="5" stroke-miterlimit="10" x1="98.221" y1="441.622" x2="119.996" y2="414.031"/>
		</g>
	</g>
	<g>
		<g>
			<line fill="none" stroke="#FFFFFF" stroke-width="5" stroke-miterlimit="10" x1="48.041" y1="387.998" x2="77.014" y2="368.1"/>
		</g>
	</g>
	<g>
		<g>
			
				<line fill="none" stroke="#FFFFFF" stroke-width="5" stroke-miterlimit="10" x1="29.534" y1="356.161" x2="61.162" y2="340.831"/>
		</g>
	</g>
	<g>
		<g>
			
				<line fill="none" stroke="#FFFFFF" stroke-width="5" stroke-miterlimit="10" x1="16.007" y1="321.911" x2="49.577" y2="311.494"/>
		</g>
	</g>
	<g>
		<g>
			<line fill="none" stroke="#FFFFFF" stroke-width="5" stroke-miterlimit="10" x1="7.767" y1="286.019" x2="42.519" y2="280.751"/>
		</g>
	</g>
</g>
<g>
	<path fill="#FFFFFF" d="M101.101,249.432c0,10.05-4.05,16.951-12.351,16.951c-8.401,0-12.101-7.551-12.151-16.751
		c0-9.4,4-16.851,12.401-16.851C97.701,232.781,101.101,240.531,101.101,249.432z M84.25,249.632c-0.05,7.45,1.75,11.001,4.7,11.001
		s4.55-3.7,4.55-11.101c0-7.201-1.55-11.001-4.6-11.001C86.1,238.531,84.2,242.082,84.25,249.632z"/>
</g>
<g>
	<path fill="#FFFFFF" d="M143.468,133.582h-12.601l-0.7,5c0.7-0.1,1.3-0.1,2.1-0.1c3.101,0,6.25,0.7,8.551,2.35
		c2.45,1.65,3.95,4.35,3.95,8.15c0,6.05-5.2,11.4-13.951,11.4c-3.951,0-7.25-0.9-9.051-1.85l1.35-5.7c1.45,0.7,4.4,1.6,7.351,1.6
		c3.15,0,6.5-1.5,6.5-4.95c0-3.35-2.65-5.4-9.151-5.4c-1.8,0-3.05,0.1-4.4,0.3l2.15-17.051h17.901V133.582z"/>
</g>
<g>
	<path fill="#FFFFFF" d="M223.467,76.415h-0.1l-6.2,2.95l-1.25-5.701l8.6-4h6.301v32.502h-7.351V76.415z"/>
	<path fill="#FFFFFF" d="M265.518,85.765c0,10.05-4.051,16.951-12.351,16.951c-8.401,0-12.101-7.55-12.151-16.751
		c0-9.4,4-16.851,12.401-16.851C262.117,69.114,265.518,76.864,265.518,85.765z M248.667,85.965c-0.05,7.451,1.75,11.001,4.7,11.001
		c2.95,0,4.551-3.7,4.551-11.101c0-7.201-1.55-11.001-4.601-11.001C250.517,74.864,248.617,78.415,248.667,85.965z"/>
</g>
<g>
	<path fill="#FFFFFF" d="M330.801,114.415H330.7l-6.2,2.95l-1.25-5.701l8.601-4h6.301v32.502h-7.351V114.415z"/>
	<path fill="#FFFFFF" d="M370.551,113.915H357.95l-0.7,5c0.7-0.1,1.3-0.1,2.1-0.1c3.101,0,6.251,0.7,8.551,2.35
		c2.45,1.65,3.95,4.35,3.95,8.15c0,6.05-5.2,11.4-13.95,11.4c-3.95,0-7.251-0.9-9.051-1.85l1.35-5.7c1.45,0.7,4.4,1.6,7.351,1.6
		c3.15,0,6.501-1.5,6.501-4.95c0-3.35-2.65-5.4-9.151-5.4c-1.8,0-3.05,0.1-4.4,0.3l2.15-17.051h17.901V113.915z"/>
</g>
<g>
	<path fill="#FFFFFF" d="M143.468,353.582h-12.601l-0.7,5c0.7-0.1,1.3-0.1,2.1-0.1c3.101,0,6.25,0.699,8.551,2.35
		c2.45,1.65,3.95,4.35,3.95,8.15c0,6.051-5.2,11.4-13.951,11.4c-3.951,0-7.25-0.9-9.051-1.85l1.35-5.701
		c1.45,0.701,4.4,1.601,7.351,1.601c3.15,0,6.5-1.5,6.5-4.95c0-3.35-2.65-5.4-9.151-5.4c-1.8,0-3.05,0.1-4.4,0.3l2.15-17.051h17.901
		V353.582z"/>
</g>
<g>
	<path fill="#FFFFFF" d="M223.467,406.414h-0.1l-6.2,2.95l-1.25-5.7l8.6-4h6.301v32.502h-7.351V406.414z"/>
	<path fill="#FFFFFF" d="M265.518,415.765c0,10.051-4.051,16.951-12.351,16.951c-8.401,0-12.101-7.551-12.151-16.751
		c0-9.4,4-16.852,12.401-16.852C262.117,399.113,265.518,406.864,265.518,415.765z M248.667,415.965
		c-0.05,7.45,1.75,11.001,4.7,11.001c2.95,0,4.551-3.7,4.551-11.101c0-7.201-1.55-11.001-4.601-11.001
		C250.517,404.864,248.617,408.414,248.667,415.965z"/>
</g>
<g>
	<path fill="#FFFFFF" d="M330.801,364.414H330.7l-6.2,2.95l-1.25-5.7l8.601-4h6.301v32.502h-7.351V364.414z"/>
	<path fill="#FFFFFF" d="M370.551,363.914H357.95l-0.7,5c0.7-0.1,1.3-0.1,2.1-0.1c3.101,0,6.251,0.7,8.551,2.351
		c2.45,1.649,3.95,4.35,3.95,8.15c0,6.05-5.2,11.4-13.95,11.4c-3.95,0-7.251-0.9-9.051-1.851l1.35-5.7
		c1.45,0.7,4.4,1.601,7.351,1.601c3.15,0,6.501-1.5,6.501-4.95c0-3.351-2.65-5.4-9.151-5.4c-1.8,0-3.05,0.1-4.4,0.3l2.15-17.051
		h17.901V363.914z"/>
</g>
<g>
	<path fill="#FFFFFF" d="M380.434,266.166v-4.601l4.199-3.8c7.102-6.351,10.551-10,10.651-13.801c0-2.65-1.601-4.75-5.351-4.75
		c-2.8,0-5.25,1.4-6.95,2.7l-2.15-5.45c2.45-1.85,6.251-3.351,10.651-3.351c7.35,0,11.4,4.3,11.4,10.201
		c0,5.451-3.951,9.801-8.65,14.001l-3,2.5v0.1h12.25v6.251H380.434z"/>
	<path fill="#FFFFFF" d="M432.184,249.765c0,10.05-4.05,16.951-12.35,16.951c-8.401,0-12.102-7.551-12.151-16.751
		c0-9.4,4-16.851,12.401-16.851C428.783,233.114,432.184,240.864,432.184,249.765z M415.333,249.965
		c-0.05,7.45,1.75,11.001,4.7,11.001s4.551-3.7,4.551-11.101c0-7.201-1.551-11.001-4.601-11.001
		C417.184,238.864,415.283,242.415,415.333,249.965z"/>
</g>
</svg>
