<?xml version="1.0" encoding="utf-8"?>
<!-- Generator: Adobe Illustrator 17.0.0, SVG Export Plug-In . SVG Version: 6.00 Build 0)  -->
<!DOCTYPE svg PUBLIC "-//W3C//DTD SVG 1.1//EN" "http://www.w3.org/Graphics/SVG/1.1/DTD/svg11.dtd">
<svg version="1.1" id="Layer_1" xmlns="http://www.w3.org/2000/svg" xmlns:xlink="http://www.w3.org/1999/xlink" x="0px" y="0px"
	 width="315px" height="45px" viewBox="0 0 315 45" enable-background="new 0 0 315 45" xml:space="preserve">
<g>
	<polygon fill="#FFFFFF" points="102.394,29 97.054,25.308 16.846,25.308 12.829,22.956 16.842,20.692 97.054,20.692 102.394,17 
		203,17 203,29 	"/>
	<path fill="#E6E6E6" d="M202.005,17.923v4.646v5.508h-99.451l-5.08-3.458l-0.26-0.234h-0.321H16.985l-3.183-1.422l3.174-1.348
		h79.917h0.321l0.261-0.234l5.079-3.458H202.005 M203,17H102.234l-5.34,3.692H16.707l-4.85,2.256l4.85,2.359h80.186l5.34,3.692H203
		v-6.431V17L203,17z"/>
</g>
<polygon fill="#141414" stroke="#0D0D0D" stroke-miterlimit="10" points="199.5,16.5 199.5,23 199.5,29.5 223.5,29.5 223.5,23 
	223.5,16.5 "/>
<path fill="#141414" stroke="#0D0D0D" stroke-miterlimit="10" d="M293.098,1.855c-9.429,0-17.408,5.645-20.082,14.645h-41.994
	c-1.857-2-4.954-3.834-8.232-3.834c-5.609,0-10.338,4.672-10.338,10.281s4.729,10.567,10.338,10.567
	c3.278,0,6.375-2.014,8.232-4.014h41.994c2.673,9,10.653,14.645,20.082,14.645c11.619,0,21.038-9.525,21.038-21.145
	S304.717,1.855,293.098,1.855z"/>
<circle fill="#141414" stroke="#0D0D0D" stroke-miterlimit="10" cx="222.971" cy="23" r="3.049"/>
</svg>
